<svg width="18" height="19" viewBox="0 0 18 19" fill="none" xmlns="http://www.w3.org/2000/svg">
<mask id="mask0_624_1203" style="mask-type:alpha" maskUnits="userSpaceOnUse" x="0" y="0" width="18" height="19">
<rect y="0.5" width="18" height="18" fill="#D9D9D9"/>
</mask>
<g mask="url(#mask0_624_1203)">
<path d="M5.25005 17.075C4.83755 17.075 4.48455 16.9282 4.19105 16.6347C3.89705 16.3407 3.75005 15.9875 3.75005 15.575C3.75005 15.1625 3.89705 14.8095 4.19105 14.516C4.48455 14.222 4.83755 14.075 5.25005 14.075C5.66255 14.075 6.01555 14.222 6.30905 14.516C6.60305 14.8095 6.75005 15.1625 6.75005 15.575C6.75005 15.9875 6.60305 16.3407 6.30905 16.6347C6.01555 16.9282 5.66255 17.075 5.25005 17.075ZM12.75 17.075C12.3375 17.075 11.9845 16.9282 11.691 16.6347C11.397 16.3407 11.25 15.9875 11.25 15.575C11.25 15.1625 11.397 14.8095 11.691 14.516C11.9845 14.222 12.3375 14.075 12.75 14.075C13.1625 14.075 13.5158 14.222 13.8098 14.516C14.1033 14.8095 14.25 15.1625 14.25 15.575C14.25 15.9875 14.1033 16.3407 13.8098 16.6347C13.5158 16.9282 13.1625 17.075 12.75 17.075ZM4.72505 5.07499L6.41255 8.61874H11.6625L13.5938 5.07499H4.72505ZM3.93755 3.42499H14.8313C15.1688 3.42499 15.428 3.57799 15.609 3.88399C15.7905 4.19049 15.8 4.49374 15.6375 4.79374L13.0688 9.42499C12.9313 9.68749 12.7408 9.89049 12.4973 10.034C12.2533 10.178 11.9875 10.25 11.7 10.25H6.15005L5.36255 11.675H14.325V13.325H5.25005C4.65005 13.325 4.20005 13.0655 3.90005 12.5465C3.60005 12.028 3.5938 11.5125 3.8813 11L4.87505 9.19999L2.21255 3.57499H0.675049V1.92499H3.22505L3.93755 3.42499Z" fill="white"/>
</g>
</svg>
